<svg xmlns="http://www.w3.org/2000/svg" xmlns:xlink="http://www.w3.org/1999/xlink" version="1.1">
  <defs>
    <linearGradient id="lg" x2="50%" x1="50%" ><stop style="stop-color:#fcf702" offset="0" /><stop style="stop-color:#ee8f00" offset="1" /></linearGradient>
    <linearGradient xlink:href="#lg" y2="100%" id="lg1" />
    <linearGradient xlink:href="#lg" y1="100%" id="lg2" />
  </defs>
  <path style="fill:url(#lg2);stroke:#A70;stroke-linejoin:round" d="m 2,1.5 4.5,0 0,-1 7,0 0,1 c 2.5,0 6,0 9,0 0.5,0 1,0.5 1.5,1.5 l 2,15.5 c 0,0.5 -0.5,1.5 -1.5,1.5 l -20.5,0 c -0.5,0 -1,-0.5 -1.5,-1.5 L 0.5,3 C 0.5,2 1,1.5 2,1.5 z" />
  <path style="fill:url(#lg1);stroke:#A70;stroke-linejoin:round" d="m 7.5,3 7,0 0,1.5 c 4.5,0 9,0 14,0 0.5,0 1.5,0.5 1.5,1.5 l -3,13.5 c 0,0.5 -0.5,1.5 -1.5,1.5 l -20.5,0 c -0.5,0 -1.5,-0.5 -1.5,-1.5 l 3,-14.5 c 0,-0.5 0.5,-1.5 1.5,-1.5 z" />
</svg>

